<?xml version="1.0" encoding="UTF-8"?>
<svg version="1.1" viewBox="0 0 1840 1156" width="60" height="50" xmlns="http://www.w3.org/2000/svg">
<path transform="translate(879,327)" d="m0 0h57l40 6 20 6 16 6 29 14 11 7 13 9 12 9 10 9 26 26 13 18 10 15 11 22 10 23 8 24 7 39 2 12 1 16-1 18-8 37-6 22-11 29-11 20-11 14-9 11-11 12-9 10-11 11-11 9-9 8-20 12-17 10-24 10-36 10-31 7-14 1h-18l-13-1-29-6-16-3-15-3-29-10-17-9-19-12-10-9-14-14-11-9-7-7-11-14-8-9-12-17-15-23-5-10v-12l4-7 14-12 7-7 35-21 24-12 13-6 6 1 9 1 6 9 14 24 9 14 7 7 7 8 9 10 13 8 17 11 9 4 18 5h34l11-2 30-10 20-12 11-9 4-4h2l2-4 9-13 10-16 9-22 3-14v-48l-8-24-8-14-11-15-8-8-14-11-21-12-14-6-19-6h-66l-26 3-25 4-38 9-20 6-44 15-7 1-1-3-2 5-19 10-28 15-19 12-13 9-13 10-17 13-18 14-14 11-10 9h-2v2l-5 5-9 11-2 5-1 7v16l10 45 7 21 11 27 13 26 14 24 7 11 14 18 9 11 35 35v2l4 2 9 9 11 9 21 14 21 13 34 17 26 12 35 10 25 5 20 3h110l56-7 23-3 77-19 50-17 40-18 28-13 25-12 28-14 22-14 21-13 15-7h2l-1 9-7 14-10 15-11 16-10 13-12 16-8 10-28 28-2 3h-2l-2 4-8 7-11 10-11 9-14 11-18 13-10 7-21 12-23 13-29 13-26 11-36 12-26 8-36 8-19 3-13 1h-98l-33-4-24-4-41-10-23-6-32-11-58-29-19-12-12-8-26-20-10-9-8-7-12-11-17-16-13-12-8-8-13-17-11-15-16-23-12-19-11-19-12-23-12-25-12-30-9-24-11-38-8-38-3-25v-37l9-22 8-9 6-5 9-11 11-13 9-11 14-14 11-9 10-9 9-7 15-12 17-13 36-24 13-8 60-32 9-7 21-10 60-20 38-10 27-6 40-7 28-3z" fill="#82C479"/>
<path transform="translate(857,72)" d="m0 0h81l43 4 32 5 40 9 35 11 22 8 32 15 21 10 25 15 19 12 22 15 17 13 13 11 9 7 7 8 19 19 6 5 7 8 6 7 30 45 14 20 12 21 12 23 6 12 13 36 10 31 6 26 8 41 3 22 1 12v38l-2 6-5 10-9 10-9 11-10 10-8 7-4 2v2l-8 7-16 15-15 15-11 9-16 13-14 12-15 10-6 3-3-1 2-4 4-20 8-38 4-26 1-15v-70l-4-36-11-47-6-20-11-26-14-26-13-21-10-13-11-14-12-13-9-11-14-15-13-12-14-11-15-12-17-12-33-17-24-12-39-15-15-4-20-4-33-3-13-1h-57l-29 2-35 3-35 5-40 7-31 7-24 7-50 18-28 13-19 10-25 13-22 12-23 13-28 17-30 20-7 1-1-3 4-15 9-17 10-14 11-13 9-12 10-12 7-9 54-54 8-7 9-9 7-8 7-7 10-7 19-14 16-10 20-12 21-10 24-11 20-9 36-12 35-7 38-7z" fill="#28C7B8"/>
<path transform="translate(879,327)" d="m0 0h57l40 6 20 6 16 6 29 14 11 7 13 9 12 9 10 9 26 26 13 18 10 15 11 22 10 23 8 24 7 39 2 12 1 16-1 18-8 37-6 22-11 29-11 20-11 14-9 11-11 12-9 10-11 11-11 9-9 8-20 12-17 10-24 10-36 10-31 7-14 1h-18l-13-1-29-6-16-3-15-3-29-10-17-9-19-12-10-9-14-14-11-9-7-7-11-14-8-9-12-17-15-23-5-10v-12l4-7 14-12 7-7 35-21 24-12 13-6 6 1 9 1 6 9 14 24 9 14 7 7 7 8 9 10 13 8 17 11 9 4 18 5h34l11-2 30-10 20-12 11-9 4-4h2l2-4 9-13 10-16 9-22 3-14v-48l-8-24-8-14-11-15-8-8-14-11-21-12-14-6-19-6h-66l-26 3-25 4-38 9-20 6-44 15-7 1-2-5 1-2-2-9-10-7-20-13-10-7-10-9-5-7-4-11-4-29-1-9 5-4 21-10 60-20 38-10 27-6 40-7 28-3z" fill="#5196FB"/>
<path transform="translate(1477,272)" d="m0 0 7 1 8 6 15 14 13 12 11 9 12 11 7 7 2 1v2l4 2 32 32 12 16 8 10 16 16 9 11 10 13 13 16 12 16 8 13 12 20 11 16 10 14 11 16 12 21 3 6 1 6-4 17-8 16-14 25-36 53-11 16-11 14-14 18-13 16-11 14-7 7-7 8-11 12-10 10h-2v2l-8 7-38 38-8 7-13 13-11 9-13 10-5 1-1-1v-13l6-17 9-19 11-26 9-22 16-52 8-39 8-40 1-10 3-84v-26l-2-26-5-26-6-37-10-42-7-26-12-31-9-21-13-28-11-25v-8z" fill="#5196FC"/>
<path transform="translate(356,268)" d="m0 0 4 1-4 17-11 22-10 19-9 20-15 38-5 19-15 71-7 41-1 8v127l5 34 6 31 14 56 12 39 19 43 12 27 4 7v4l-6-2-9-7-15-13-13-11-24-24-5-6-14-11-10-11-10-13-11-12-7-8-12-14-13-17-14-17-10-13-12-16-11-18-13-18-11-16-18-27-12-21-4-9v-13l5-12 12-24 8-14 12-17 16-22 13-17 12-15 9-12 10-13 11-14 11-13 12-14 9-10 6-7h2l2-4 83-83 8-7 10-7z" fill="#5196FB"/>
<path transform="translate(857,72)" d="m0 0h81l7 1v24l-2 40-3 46v20l-52 1-29 2-35 3-35 5-40 7-31 7-24 7-50 18-28 13-19 10-25 13-22 12-23 13-28 17-30 20-7 1-1-3 4-15 9-17 10-14 11-13 9-12 10-12 7-9 54-54 8-7 9-9 7-8 7-7 10-7 19-14 16-10 20-12 21-10 24-11 20-9 36-12 35-7 38-7z" fill="#5196FB"/>
<path transform="translate(773,606)" d="m0 0 6 1 9 1 6 9 14 24 9 14 7 7 7 8 8 9 4 7 6 7 11 23 7 18 6 20 8 28 5 21 1 8v9l-2 4-16 1-4 3-1 3h-7l-23-5-29-10-17-9-19-12-10-9-14-14-11-9-7-7-11-14-8-9-12-17-15-23-5-10v-12l4-7 14-12 7-7 35-21 24-12z" fill="#82C479"/>
<path transform="translate(1361,824)" d="m0 0h2l-1 9-7 14-10 15-11 16-10 13-12 16-8 10-28 28-2 3h-2l-2 4-8 7-11 10-11 9-14 11-18 13-10 7-21 12-23 13-29 13-26 11-14 5h-4l-5-15-7-15-6-14-7-20-3-11-3-21v-8l2-7 64-16 22-6 44-15 40-18 28-13 25-12 28-14 22-14 21-13z" fill="#5196FC"/>
<path transform="translate(839,680)" d="m0 0 8 4 2 2v4l-3 1-7-9z" fill="#2FC5BE"/>
</svg>
