<svg xmlns="http://www.w3.org/2000/svg" version="1.1" viewBox="0 0 2040 514" width="160" height="40">
<path transform="translate(395,145)" d="m0 0h18l20 3 12 4 17 8 14 10 14 14 10 14 8 16 5 13 4 25v12l-5 23-6 16-5 9-9 11-9 10-12 10-15 9-11 5-19 5-11 2h-16l-26-5-15-5-15-9-8-8-8-7-11-14-10-15-2-4 1-6 10-9 15-9 16-8 6 1 11 19 10 11 15 10 10 3h17l15-5 10-6 7-6 9-13 5-14v-23l-4-11-7-11-9-8-12-7-13-4h-27l-22 3-21 5-27 9-21 11-12 8-26 20-8 7-6 7-1 9 5 23 6 16 8 16 7 12 10 13 19 19 8 7 16 10 26 13 18 5 17 3h47l33-4 33-8 24-8 29-13 20-10 19-12 6-3h2l-1 5-9 14-14 18-16 17-14 12-15 11-19 11-24 11-27 9-20 4-8 1h-44l-22-3-28-7-15-5-24-12-13-8-14-11-26-24-8-10-12-17-9-15-8-16-10-25-6-21-3-15-1-9v-16l4-10 7-7 9-11 8-8 8-7 16-13 21-14 28-15 6-4 6-3 7-2 8-3 9-3 26-7 24-4z" fill="#7BC577"/>
<path transform="translate(388,36)" d="m0 0h29l26 3 23 5 21 7 24 11 15 9 14 9 16 13 19 19 13 19 9 13 11 21 7 19 4 14 5 23 2 15v19l-3 6-9 10-15 14-8 8-10 8-12 10-5 3h-2l4-18 3-16 1-10v-29l-2-16-6-25-6-15-10-18-9-12-9-10-6-7-8-7-18-14-25-13-19-7-15-3-22-2h-20l-34 3-28 5-17 4-26 9-16 8-15 8-14 7-18 11-13 9h-2l1-6 6-11 11-14 9-11 18-18 8-7 8-9 14-10 15-9 28-13 15-5 32-6z" fill="#29C8BA"/>
<path transform="translate(395,145)" d="m0 0h18l20 3 12 4 17 8 14 10 14 14 10 14 8 16 5 13 4 25v12l-5 23-6 16-5 9-9 11-9 10-12 10-15 9-11 5-19 5-11 2h-16l-26-5-15-5-15-9-8-8-8-7-11-14-10-15-2-4 1-6 10-9 15-9 16-8 6 1 11 19 10 11 15 10 10 3h17l15-5 10-6 7-6 9-13 5-14v-23l-4-11-7-11-9-8-12-7-13-4h-27l-22 3-21 5-24 8-3-1 1-6-4-2-14-9-5-4-3-5-2-19 9-5 7-2 8-3 9-3 26-7 24-4z" fill="#519bff"/>
<path transform="translate(647,122)" d="m0 0 4 1 11 10 8 7 12 11 11 11 8 10 10 11 7 9 10 12 10 17 13 18 7 13-2 9-9 16-8 12-13 19-14 18-12 14-35 35-11 9-4 3h-2l1-7 14-33 8-25 7-37 1-44-1-15-5-28-7-28-6-16-13-28z" fill="#519bff"/>
<path transform="translate(167,120)" d="m0 0h1l-1 7-11 21-10 25-8 39-3 19v52l4 24 6 25 6 20 12 27 3 6v2l-4-2-14-12-13-13-6-5-9-11-9-10-8-10-14-18-8-12-13-19-7-11-3-6v-8l10-19 12-17 16-21 7-9 12-14 15-16 24-24 8-7z" fill="#519bff"/>
<path transform="translate(388,36)" d="m0 0h29l4 2-2 1v20l-2 8v15l-1 7-2 2-45 3-26 4-24 5-29 10-16 8-15 8-14 7-18 11-13 9h-2l1-6 6-11 11-14 9-11 18-18 8-7 8-9 14-10 15-9 28-13 15-5 32-6z" fill="#519bff"/>
<path transform="translate(1633,147)" d="m0 0h14l9 4 5 4 4 6 5-5 8-6 8-3h14l9 4 5 4 6 10 3 12v46l-1 1h-30l-1-1-1-45-4-7-7-1-6 3-4 8-1 42-1 1h-30l-1-40-2-10-3-3-7-1-6 2-3 6-1 17v28l-2 1h-29l-1-1v-75h30l1 14 7-8 5-4z" fill="#073542"/>
<path transform="translate(823,120)" d="m0 0h34v41h33v-41h34v103l-10 1h-23l-1-1-1-39-32-1v40l-2 1h-27l-5-1z" fill="#053240"/>
<path transform="translate(1275,147)" d="m0 0h14l10 5 7 8 1-13h32v68l-3 14-6 12-6 7-10 6-16 4h-13l-9-2 2-20 1-1 17-1 6-3 4-5 4-14-10 8-9 3-11 1-12-3-10-6-6-7-5-10-2-8v-9l2-9 5-10 5-6 11-7zm12 24-5 3-4 5-2 8 3 8 6 5 2 1h10l6-4 4-6v-10l-4-6-6-4z" fill="#053341"/>
<path transform="translate(1741,120)" d="m0 0h49l14 3 10 5 8 7 4 8 1 3v15l-5 10-5 5-8 6-11 4-12 2h-13v35l-1 1h-31zm32 22v25h12l8-3 4-6v-8l-5-6-7-2z" fill="#063341"/>
<path transform="translate(1064,147)" d="m0 0h13l10 5 7 8 1 2 1-15h32v76l-1 1h-30l-1-1v-12l-8 9-8 4-3 1h-12l-11-4-9-7-7-9-4-11v-17l4-11 8-10 11-7zm12 24-5 3-5 6-1 8 3 7 6 5 3 1h8l8-5 3-6v-9l-4-6-6-4z" fill="#063441"/>
<path transform="translate(1502,147)" d="m0 0h13l9 4 5 4 4 6 1-13 1-1h31v76l-5 1h-25l-1-1-1-12-8 9-8 4-3 1h-12l-11-4-9-7-7-9-4-12v-16l5-12 7-9 9-6zm12 24-6 4-4 5-1 7 3 8 6 5 3 1h8l7-4 4-6v-10l-4-6-6-4z" fill="#063441"/>
<path transform="translate(1425,117)" d="m0 0h18l12 3 8 4-1 12-2 11-2 1-11-3h-15l-9 4-5 6-2 5-1 6v9l2 9 4 6 5 4 8 3h15l10-3 2 6 2 12v6l-12 5-9 2h-15l-11-3-14-7-7-6-9-13-4-10-2-16 2-15 5-12 7-9 7-7 10-6z" fill="#053341"/>
<path transform="translate(1195,147)" d="m0 0h15l9 4 6 5 5 8 3 11 1 44-2 5h-29l-1-1-1-45-3-6-4-2-9 1-5 5-3 5-1 42-5 1h-27v-76h30l1 14 9-10 8-4z" fill="#073442"/>
<path transform="translate(346,265)" d="m0 0 6 1 11 19 10 11 2 2 8 14 4 12 5 17 3 14-2 3-8 1v2l-12-2-15-5-15-9-8-8-8-7-11-14-10-15-2-4 1-6 10-9 15-9z" fill="#7BC577"/>
<path transform="translate(1936,147)" d="m0 0h19l13 4 9 6 7 8 4 8 1 4v18l-5 12-8 9-14 7-10 2h-14l-11-3-10-5-5-4-6-8-4-12v-15l4-11 6-8 9-7 11-4zm6 22-7 4-3 6-1 10 3 8 6 5 8 1 7-3 4-5 1-3v-13l-4-6-4-3-3-1z" fill="#053340"/>
<path transform="translate(973,147)" d="m0 0h18l11 3 9 5 7 6 5 8 3 11v12l-3 10-6 9-9 8-10 4-9 2h-14l-12-3-9-5-7-6-6-10-3-11v-8l3-12 6-9 9-8 12-5zm6 22-6 3-4 5-1 3v11l4 8 8 4 8-1 7-6 2-6v-9l-4-8-7-4z" fill="#053341"/>
<path transform="translate(596,359)" d="m0 0h2l-1 5-9 14-14 18-16 17-14 12-15 11-19 11-24 11-10 3v-6l-7-15-4-14-1-12 9-3 25-6 24-8 29-13 20-10 19-12z" fill="#519bff"/>
<path transform="translate(1887,147)" d="m0 0h6l3 13 1 11-17 2-8 4-1 2-1 11-1 33-5 1h-26v-76h31l1 2-1 13h2l2-6 7-7z" fill="#073442"/>
<path transform="translate(679,251)" d="m0 0h1l1 38 1 16 4 6 7 5v2l4 2 9 9 1 3-11 12-31 31-11 9-4 3h-2l1-7 14-33 8-25 7-37z" fill="#519bff"/>
<path transform="translate(1458,316)" d="m0 0h10l5 5 10 15 12 17 1-37h10l1 1v55l-1 1h-9l-10-13-8-12-9-13-1 38h-11z" fill="#073442"/>
<path transform="translate(1142,316)" d="m0 0h10l11 15 11 16 4 5 1-36h10l1 1v56h-10l-13-18-12-17-2-3-1 38h-10l-1-3v-53z" fill="#083543"/>
<path transform="translate(1071,332)" d="m0 0h10l7 5 8-5h8l5 3 4 6v32h-11l-1-28-2-3h-7l-3 2-1 29h-11l-1-29-2-2h-7l-3 2-1 29h-11v-40h11l1 4 5-4z" fill="#043240"/>
<path transform="translate(1064,89)" d="m0 0 7 4 20 14 17 12-1 5-7 11-6-1-43-17-1-3 13-24z" fill="#063341"/>
<path transform="translate(1353,316)" d="m0 0h11l4 9 15 42 1 6h-10l-4-10v-3l-22 1-5 12h-10l1-5 10-29 8-22zm5 12-4 10-3 9v3h15l-2-9-4-12z" fill="#073442"/>
<path transform="translate(1202,315)" d="m0 0h11l1 22 6-4 7-1 8 3 4 7v31h-11l-1-29-3-2h-7l-3 2-1 29h-11z" fill="#043240"/>
<path transform="translate(1588,315)" d="m0 0h10v22l7-4 7-1 7 2 5 6 1 3v30h-11l-1-28-1-3h-9l-3 2-1 3-1 26h-10z" fill="#053240"/>
<path transform="translate(1290,332)" d="m0 0h7l8 4 3 6v31h-11l-1-28-3-3h-7l-3 2-1 29h-11v-40h11v4z" fill="#053341"/>
<path transform="translate(1017,332)" d="m0 0h15l6 4 3 5v32h-9l-1-5-7 5-9 1-5-2-5-5-1-7 3-7 6-4 18-2-3-6-1-1h-7l-5 4h-9l2-6 6-5zm6 21-7 3-1 1v7l4 3 7-1 4-4 1-7-1-2z" fill="#083543"/>
<path transform="translate(1412,332)" d="m0 0 10 1 6 5 1 2 1 32-1 1h-10l-1-3-1-26-2-2h-8l-3 4-1 27h-10l-1-6v-33l1-1h10v4z" fill="#0E3A47"/>
<path transform="translate(955,316)" d="m0 0h44v10h-17v47h-10l-1-1v-45l-17-1v-9z" fill="#143F4C"/>
<path transform="translate(1560,332)" d="m0 0h7l6 3 4 5 1 6v27h-11l-1-24-2-6-1-1h-8l-3 3-1 28h-10l-1-40h11v4z" fill="#083643"/>
<path transform="translate(647,122)" d="m0 0 4 1 11 10 8 7 12 11 6 7-4-2-7-6-3-1-3 3-2 7-1 10-2 1-6-16-13-28z" fill="#519bff"/>
<path transform="translate(1249,333)" d="m0 0h11l-1 40h-10z" fill="#053341"/>
<path transform="translate(1519,333)" d="m0 0h10v40h-10z" fill="#043240"/>
<path transform="translate(1020,318)" d="m0 0h9l8 8v2h-7l-5-5-4 2-4 3h-6l2-4z" fill="#0A3745"/>
<path transform="translate(476,172)" d="m0 0 4 2 10 10 10 14 2 6-4-4v-3h-3v-2l-4-2-10-10-4-5z" fill="#519bff"/>
<path transform="translate(1240,316)" d="m0 0h10l7 9v3l-8-1-5-6-4-3z" fill="#224B57"/>
<path transform="translate(654,372)" d="m0 0 6 2 1 4-11 9h-2l1-7 3-7z" fill="#519bff"/>
<path transform="translate(1519,316)" d="m0 0h9l1 1v9h-10z" fill="#15404D"/>
<path transform="translate(1029,308)" d="m0 0h8l5 9-5 1-6-7-2-1z" fill="#0F3B48"/>
<path transform="translate(564,304)" d="m0 0 9 1v3l-9 6h-2z" fill="#4AC59E"/>
<path transform="translate(675,204)" d="m0 0 2 1 3 13-1 8h-1l-3-18z" fill="#519bff"/>
</svg>